<svg width="40" height="40" viewBox="0 0 40 40" fill="none" xmlns="http://www.w3.org/2000/svg">
<g clip-path="url(#clip0_377_658)">
<path d="M34 0H6C2.68629 0 0 2.68629 0 6V34C0 37.3137 2.68629 40 6 40H34C37.3137 40 40 37.3137 40 34V6C40 2.68629 37.3137 0 34 0Z" fill="#007BB5"/>
<path fill-rule="evenodd" clip-rule="evenodd" d="M14.3878 15.7999H9.96784V29.0699H14.3878V15.7999ZM14.6698 11.6999C14.6558 10.4019 13.7188 9.40991 12.2048 9.40991C10.7048 9.40991 9.71484 10.4019 9.71484 11.6999C9.71484 12.9729 10.6648 13.9909 12.1518 13.9909H12.1788C13.7188 13.9909 14.6828 12.9729 14.6688 11.7009L14.6698 11.6999ZM21.2318 17.6859V15.7989H16.8258C16.8258 15.7989 16.8788 17.0449 16.8258 29.0709H21.2318V21.6649C21.2318 21.2629 21.2718 20.8749 21.3788 20.5799C21.7008 19.7899 22.4238 18.9729 23.6428 18.9729C25.2368 18.9729 25.8788 20.1919 25.8788 21.9729V29.0709H30.2858V21.4639C30.2858 17.3929 28.1158 15.4909 25.2098 15.4909C22.8618 15.4909 21.8138 16.7769 21.2318 17.6859Z" fill="white"/>
</g>
<defs>
<clipPath id="clip0_377_658">
<rect width="40" height="40" fill="white"/>
</clipPath>
</defs>
</svg>
