<svg width="22" height="23" viewBox="0 0 22 23" fill="none" xmlns="http://www.w3.org/2000/svg">
<mask id="mask0_377_633" style="mask-type:luminance" maskUnits="userSpaceOnUse" x="0" y="0" width="22" height="23">
<path d="M0 0.0449219H22V22.0449H0V0.0449219Z" fill="white"/>
</mask>
<g mask="url(#mask0_377_633)">
<path d="M13.7959 4.62891C14.691 4.80365 15.5136 5.24146 16.1585 5.88634C16.8034 6.53121 17.2412 7.35382 17.4159 8.24891L13.7959 4.62891ZM13.7959 0.961914C15.6559 1.16866 17.3904 2.00166 18.7146 3.32419C20.0387 4.64671 20.8739 6.38014 21.0829 8.23991L13.7959 0.961914ZM20.1659 15.5559V18.3059C20.1671 18.5612 20.1149 18.8139 20.0127 19.0479C19.9105 19.2818 19.7605 19.4918 19.5724 19.6644C19.3843 19.837 19.1622 19.9684 18.9203 20.0501C18.6784 20.1318 18.4221 20.162 18.1679 20.1389C15.3475 19.8324 12.6382 18.8686 10.2579 17.3249C8.04308 15.9175 6.16529 14.0397 4.7579 11.8249C3.20835 9.43344 2.24397 6.71057 1.9429 3.87691C1.92014 3.62353 1.95037 3.36819 2.03167 3.12713C2.11297 2.88607 2.24356 2.66458 2.41512 2.47674C2.58669 2.2889 2.79548 2.13883 3.02821 2.03608C3.26093 1.93332 3.5125 1.88014 3.7669 1.87991H6.5169C6.96148 1.87549 7.39251 2.0328 7.72972 2.32255C8.06693 2.6123 8.28734 3.01474 8.3499 3.45491C8.4669 4.33491 8.6819 5.19991 8.9919 6.03091C9.1153 6.35894 9.14208 6.71546 9.06905 7.05823C8.99603 7.40101 8.82627 7.71567 8.5799 7.96491L7.4149 9.12991C8.71984 11.4248 10.62 13.325 12.9149 14.6299L14.0799 13.4649C14.3291 13.2184 14.6437 13.0486 14.9865 12.9756C15.3293 12.9025 15.6859 12.9294 16.0139 13.0529C16.8459 13.3629 17.7099 13.5789 18.5899 13.6949C19.0349 13.7578 19.4414 13.982 19.7319 14.3249C20.0225 14.6679 20.1769 15.1066 20.1659 15.5559Z" stroke="white" stroke-width="2" stroke-linecap="round" stroke-linejoin="round"/>
</g>
</svg>
