<svg width="40" height="40" viewBox="0 0 40 40" fill="none" xmlns="http://www.w3.org/2000/svg">
<g clip-path="url(#clip0_377_662)">
<path d="M34 0H6C2.68629 0 0 2.68629 0 6V34C0 37.3137 2.68629 40 6 40H34C37.3137 40 40 37.3137 40 34V6C40 2.68629 37.3137 0 34 0Z" fill="url(#paint0_linear_377_662)"/>
<path d="M20 9.01004C15.495 9.01004 11.216 8.61004 9.58196 12.8C8.90696 14.532 9.00496 16.78 9.00496 19.998C9.00496 22.823 8.91496 25.478 9.58196 27.195C11.212 31.388 15.526 30.986 19.998 30.986C24.312 30.986 28.761 31.436 30.415 27.195C31.091 25.447 30.992 23.232 30.992 19.998C30.992 15.706 31.229 12.935 29.145 10.854C27.036 8.74704 24.183 9.01104 19.995 9.01104L20 9.01004ZM19.015 10.99C28.413 10.976 29.61 9.93204 28.949 24.435C28.715 29.565 24.806 29.001 20.001 29.001C11.241 29.001 10.989 28.751 10.989 19.993C10.989 11.135 11.684 10.996 19.015 10.988V10.991V10.99ZM25.87 12.815C25.6938 12.8101 25.5184 12.8406 25.3541 12.9046C25.1899 12.9686 25.0402 13.0649 24.9138 13.1877C24.7874 13.3106 24.6869 13.4576 24.6183 13.6199C24.5496 13.7823 24.5142 13.9568 24.5142 14.133C24.5141 14.3093 24.5494 14.4838 24.6179 14.6462C24.6864 14.8086 24.7867 14.9556 24.913 15.0786C25.0393 15.2016 25.189 15.298 25.3532 15.3621C25.5174 15.4262 25.6928 15.4568 25.869 15.452C26.2124 15.4426 26.5385 15.2995 26.7781 15.0533C27.0176 14.807 27.1516 14.4771 27.1516 14.1335C27.1516 13.79 27.0176 13.46 26.7781 13.2138C26.5385 12.9676 26.2124 12.8245 25.869 12.815H25.87ZM20 14.355C18.503 14.3548 17.0672 14.9491 16.0084 16.0074C14.9496 17.0656 14.3545 18.5011 14.354 19.998C14.3542 20.7392 14.5005 21.4731 14.7844 22.1578C15.0682 22.8424 15.4842 23.4645 16.0085 23.9884C16.5327 24.5123 17.1551 24.9278 17.8399 25.2112C18.5248 25.4946 19.2588 25.6403 20 25.64C21.4963 25.64 22.9314 25.0456 23.9895 23.9875C25.0475 22.9295 25.642 21.4944 25.642 19.998C25.642 18.5017 25.0475 17.0666 23.9895 16.0085C22.9314 14.9505 21.4963 14.356 20 14.356V14.355ZM20 16.335C24.846 16.335 24.852 23.661 20 23.661C15.156 23.661 15.149 16.336 20 16.336V16.335Z" fill="white"/>
</g>
<defs>
<linearGradient id="paint0_linear_377_662" x1="2.686" y1="37.394" x2="39.748" y2="5.31" gradientUnits="userSpaceOnUse">
<stop stop-color="#FFDD55"/>
<stop offset="0.5" stop-color="#FF543E"/>
<stop offset="1" stop-color="#C837AB"/>
</linearGradient>
<clipPath id="clip0_377_662">
<rect width="40" height="40" fill="white"/>
</clipPath>
</defs>
</svg>
