<svg width="44" height="33" viewBox="0 0 44 33" fill="none" xmlns="http://www.w3.org/2000/svg">
<g id="material-symbols-light:chat-outline">
<path id="Vector" d="M11.9167 21.375H24.75V19.7917H11.9167V21.375ZM11.9167 16.625H32.0833V15.0417H11.9167V16.625ZM11.9167 11.875H32.0833V10.2917H11.9167V11.875ZM5.5 31.7886V7.30708C5.5 6.57875 5.78294 5.97075 6.34883 5.48308C6.9135 4.99436 7.6175 4.75 8.46083 4.75H35.5392C36.3825 4.75 37.0865 4.99436 37.6512 5.48308C38.2171 5.97075 38.5 6.57875 38.5 7.30708V24.3596C38.5 25.0879 38.2177 25.6964 37.653 26.1852C37.0871 26.6728 36.3825 26.9167 35.5392 26.9167H11.1412L5.5 31.7886ZM10.3583 25.3333H35.5392C35.8203 25.3333 36.0788 25.232 36.3147 25.0293C36.5493 24.8256 36.6667 24.6024 36.6667 24.3596V7.30708C36.6667 7.06431 36.5493 6.84106 36.3147 6.63733C36.0788 6.43467 35.8203 6.33333 35.5392 6.33333H8.46083C8.17972 6.33333 7.92122 6.43467 7.68533 6.63733C7.45067 6.84106 7.33333 7.06431 7.33333 7.30708V27.9379L10.3583 25.3333Z" fill="black"/>
</g>
</svg>
