<svg width="32" height="18" viewBox="0 0 32 18" fill="none" xmlns="http://www.w3.org/2000/svg">
<g id="ep:back">
<path id="Vector" d="M7 8.4375H27C27.2652 8.4375 27.5196 8.49676 27.7071 8.60225C27.8946 8.70774 28 8.85082 28 9C28 9.14918 27.8946 9.29226 27.7071 9.39775C27.5196 9.50324 27.2652 9.5625 27 9.5625H7C6.73478 9.5625 6.48043 9.50324 6.29289 9.39775C6.10536 9.29226 6 9.14918 6 9C6 8.85082 6.10536 8.70774 6.29289 8.60225C6.48043 8.49676 6.73478 8.4375 7 8.4375Z" fill="black"/>
<path id="Vector_2" d="M7.41383 9.00071L15.7078 13.665C15.8956 13.7706 16.0011 13.9138 16.0011 14.0632C16.0011 14.2126 15.8956 14.3558 15.7078 14.4615C15.5201 14.5671 15.2654 14.6264 14.9998 14.6264C14.7343 14.6264 14.4796 14.5671 14.2918 14.4615L5.29183 9.39896C5.19871 9.34671 5.12482 9.28464 5.07441 9.2163C5.024 9.14796 4.99805 9.0747 4.99805 9.00071C4.99805 8.92672 5.024 8.85346 5.07441 8.78512C5.12482 8.71678 5.19871 8.65471 5.29183 8.60246L14.2918 3.53996C14.4796 3.43434 14.7343 3.375 14.9998 3.375C15.2654 3.375 15.5201 3.43434 15.7078 3.53996C15.8956 3.64558 16.0011 3.78884 16.0011 3.93821C16.0011 4.08758 15.8956 4.23084 15.7078 4.33646L7.41383 9.00071Z" fill="black"/>
</g>
</svg>
