<svg width="39" height="32" viewBox="0 0 39 32" fill="none" xmlns="http://www.w3.org/2000/svg">
<g id="skill-icons:instagram" clip-path="url(#clip0_895_4863)">
<g id="Group">
<path id="Vector" d="M29.8594 0H9.14062C4.0924 0 0 3.35786 0 7.5V24.5C0 28.6421 4.0924 32 9.14062 32H29.8594C34.9076 32 39 28.6421 39 24.5V7.5C39 3.35786 34.9076 0 29.8594 0Z" fill="url(#paint0_radial_895_4863)"/>
<path id="Vector_2" d="M29.8594 0H9.14062C4.0924 0 0 3.35786 0 7.5V24.5C0 28.6421 4.0924 32 9.14062 32H29.8594C34.9076 32 39 28.6421 39 24.5V7.5C39 3.35786 34.9076 0 29.8594 0Z" fill="url(#paint1_radial_895_4863)"/>
<path id="Vector_3" d="M19.5014 3.5C15.364 3.5 14.8447 3.51488 13.2198 3.5755C11.5979 3.6365 10.4908 3.84712 9.52225 4.15625C8.52013 4.4755 7.6702 4.90262 6.82348 5.59762C5.97599 6.2925 5.45543 6.98987 5.06513 7.81175C4.68731 8.60675 4.43031 9.5155 4.35734 10.8456C4.28467 12.179 4.26562 12.6053 4.26562 16.0001C4.26562 19.395 4.28391 19.8197 4.35764 21.153C4.43229 22.4837 4.68899 23.3921 5.06543 24.1869C5.45482 25.0091 5.97538 25.7065 6.82241 26.4013C7.66898 27.0966 8.51891 27.5247 9.52027 27.844C10.4896 28.1531 11.5969 28.3637 13.2184 28.4247C14.8435 28.4854 15.3623 28.5002 19.4995 28.5002C23.6374 28.5002 24.155 28.4854 25.7799 28.4247C27.4018 28.3637 28.5101 28.1531 29.4794 27.844C30.4811 27.5247 31.3298 27.0966 32.1762 26.4013C33.0237 25.7065 33.5441 25.0091 33.9346 24.1873C34.309 23.3921 34.5662 22.4835 34.6424 21.1532C34.7153 19.82 34.7344 19.395 34.7344 16.0001C34.7344 12.6053 34.7153 12.1792 34.6424 10.8459C34.5662 9.51512 34.309 8.60688 33.9346 7.81213C33.5441 6.98988 33.0237 6.2925 32.1762 5.59762C31.3289 4.90237 30.4814 4.47525 29.4785 4.15637C28.5073 3.84712 27.3996 3.63638 25.7778 3.5755C24.1527 3.51488 23.6354 3.5 19.4966 3.5H19.5014ZM18.1347 5.75262C18.5404 5.75213 18.993 5.75262 19.5014 5.75262C23.5691 5.75262 24.0511 5.76463 25.6574 5.8245C27.1428 5.88025 27.949 6.08388 28.486 6.255C29.197 6.4815 29.7038 6.75238 30.2367 7.19C30.7699 7.6275 31.0999 8.04412 31.3767 8.6275C31.5853 9.0675 31.8338 9.729 31.9014 10.9478C31.9744 12.2655 31.9902 12.6612 31.9902 15.9972C31.9902 19.3333 31.9744 19.7291 31.9014 21.0467C31.8334 22.2655 31.5853 22.927 31.3767 23.3671C31.1007 23.9505 30.7699 24.3659 30.2367 24.8031C29.7035 25.2406 29.1973 25.5114 28.486 25.738C27.9496 25.9099 27.1428 26.113 25.6574 26.1688C24.0514 26.2286 23.5691 26.2416 19.5014 26.2416C15.4335 26.2416 14.9513 26.2286 13.3455 26.1688C11.8601 26.1125 11.0539 25.9089 10.5164 25.7377C9.80561 25.5111 9.29769 25.2404 8.76449 24.8029C8.23128 24.3654 7.90131 23.9498 7.6245 23.3661C7.41594 22.926 7.16747 22.2645 7.09983 21.0457C7.02686 19.728 7.01223 19.3323 7.01223 15.9941C7.01223 12.6561 7.02686 12.2624 7.09983 10.9446C7.16777 9.72587 7.41594 9.06437 7.6245 8.62375C7.9007 8.04037 8.23129 7.62375 8.76464 7.18625C9.29784 6.74875 9.8056 6.47787 10.5166 6.25087C11.0536 6.079 11.8601 5.87587 13.3455 5.81987C14.7508 5.76775 15.2955 5.75212 18.1347 5.7495V5.75262ZM27.6335 7.82812C26.6242 7.82812 25.8054 8.49938 25.8054 9.32763C25.8054 10.1558 26.6242 10.8276 27.6335 10.8276C28.6428 10.8276 29.4616 10.1558 29.4616 9.32763C29.4616 8.4995 28.6428 7.82762 27.6335 7.82762V7.82812ZM19.5014 9.58075C15.1809 9.58075 11.6779 12.455 11.6779 16.0001C11.6779 19.5452 15.1809 22.4181 19.5014 22.4181C23.822 22.4181 27.3238 19.5452 27.3238 16.0001C27.3238 12.4551 23.8217 9.58075 19.5011 9.58075H19.5014ZM19.5014 11.8334C22.3059 11.8334 24.5796 13.6988 24.5796 16.0001C24.5796 18.3013 22.3059 20.1669 19.5014 20.1669C16.6967 20.1669 14.4233 18.3013 14.4233 16.0001C14.4233 13.6988 16.6967 11.8334 19.5014 11.8334Z" fill="white"/>
</g>
</g>
<defs>
<radialGradient id="paint0_radial_895_4863" cx="0" cy="0" r="1" gradientUnits="userSpaceOnUse" gradientTransform="translate(10.3594 34.4646) rotate(-90) scale(31.7144 35.9493)">
<stop stop-color="#FFDD55"/>
<stop offset="0.1" stop-color="#FFDD55"/>
<stop offset="0.5" stop-color="#FF543E"/>
<stop offset="1" stop-color="#C837AB"/>
</radialGradient>
<radialGradient id="paint1_radial_895_4863" cx="0" cy="0" r="1" gradientUnits="userSpaceOnUse" gradientTransform="translate(-6.53265 2.30512) rotate(76.2904) scale(14.3084 70.5623)">
<stop stop-color="#3771C8"/>
<stop offset="0.128" stop-color="#3771C8"/>
<stop offset="1" stop-color="#6600FF" stop-opacity="0"/>
</radialGradient>
<clipPath id="clip0_895_4863">
<rect width="39" height="32" fill="white"/>
</clipPath>
</defs>
</svg>
