<svg width="40" height="37" viewBox="0 0 40 37" fill="none" xmlns="http://www.w3.org/2000/svg">
<g id="Group">
<path id="Vector" d="M3.5 22.4651V34.358C3.5 34.7084 3.65804 35.0446 3.93934 35.2924C4.22064 35.5402 4.60218 35.6794 5 35.6794H35C35.3978 35.6794 35.7794 35.5402 36.0607 35.2924C36.342 35.0446 36.5 34.7084 36.5 34.358V22.4651M23 22.4651V35.6794M3.5 26.4294H23M0.5 10.5723L5 1.32227H35L39.5 10.5723H0.5ZM0.5 10.5723V13.2151C0.5 14.617 1.13214 15.9614 2.25736 16.9527C3.38258 17.944 4.9087 18.5008 6.5 18.5008H7.34C8.9313 18.5008 10.4574 17.944 11.5826 16.9527C12.7079 15.9614 13.34 14.617 13.34 13.2151V10.5723" stroke="black" stroke-linecap="round" stroke-linejoin="round"/>
<path id="Vector_2" d="M26.75 10.5723V13.2151M26.75 13.2151C26.75 14.617 26.1179 15.9614 24.9926 16.9527C23.8674 17.944 22.3413 18.5008 20.75 18.5008H19.25C17.6587 18.5008 16.1326 17.944 15.0074 16.9527C13.8821 15.9614 13.25 14.617 13.25 13.2151V10.5723M26.75 13.2151C26.75 14.617 27.3821 15.9614 28.5074 16.9527C29.6326 17.944 31.1587 18.5008 32.75 18.5008H33.5C35.0913 18.5008 36.6174 17.944 37.7426 16.9527C38.8679 15.9614 39.5 14.617 39.5 13.2151V10.5723" stroke="black" stroke-linecap="round" stroke-linejoin="round"/>
</g>
</svg>
