<svg width="225" height="201" viewBox="0 0 225 201" fill="none" xmlns="http://www.w3.org/2000/svg">
<path d="M70.7188 23.9062C64.5276 23.9063 58.59 26.1731 54.2122 30.208C49.8344 34.243 47.375 39.7156 47.375 45.4219V52.5938H192.625V45.4219C192.625 39.7156 190.166 34.243 185.788 30.208C181.41 26.1731 175.472 23.9063 169.281 23.9062H70.7188ZM47.375 107.578V62.1562H192.625V107.578C192.625 113.284 190.166 118.757 185.788 122.792C181.41 126.827 175.472 129.094 169.281 129.094H70.7188C64.5276 129.094 58.59 126.827 54.2122 122.792C49.8344 118.757 47.375 113.284 47.375 107.578ZM145.938 90.8438C144.562 90.8438 143.242 91.3475 142.269 92.2441C141.297 93.1408 140.75 94.3569 140.75 95.625C140.75 96.8931 141.297 98.1092 142.269 99.0059C143.242 99.9025 144.562 100.406 145.938 100.406H161.5C162.876 100.406 164.195 99.9025 165.168 99.0059C166.141 98.1092 166.688 96.8931 166.688 95.625C166.688 94.3569 166.141 93.1408 165.168 92.2441C164.195 91.3475 162.876 90.8438 161.5 90.8438H145.938Z" fill="#F24E1E"/>
<path d="M0.186682 172V157.455H6.01055C7.08062 157.455 7.97314 157.613 8.6881 157.93C9.40307 158.248 9.94047 158.688 10.3003 159.251C10.6602 159.81 10.8401 160.454 10.8401 161.183C10.8401 161.751 10.7265 162.251 10.4992 162.682C10.2719 163.108 9.95941 163.458 9.56168 163.733C9.16869 164.003 8.71888 164.195 8.21225 164.308V164.45C8.76623 164.474 9.28469 164.63 9.76765 164.919C10.2553 165.208 10.6507 165.613 10.9537 166.134C11.2568 166.65 11.4083 167.265 11.4083 167.98C11.4083 168.752 11.2165 169.441 10.833 170.047C10.4542 170.648 9.89312 171.124 9.14975 171.474C8.40638 171.825 7.49019 172 6.40117 172H0.186682ZM3.26197 169.486H5.76907C6.62608 169.486 7.25108 169.322 7.64407 168.996C8.03706 168.664 8.23356 168.224 8.23356 167.675C8.23356 167.272 8.13649 166.917 7.94236 166.609C7.74824 166.302 7.47125 166.06 7.1114 165.885C6.75628 165.71 6.33252 165.622 5.84009 165.622H3.26197V169.486ZM3.26197 163.541H5.5418C5.9632 163.541 6.33725 163.468 6.66396 163.321C6.99539 163.17 7.25581 162.956 7.44521 162.682C7.63933 162.407 7.7364 162.078 7.7364 161.695C7.7364 161.169 7.54937 160.745 7.17532 160.423C6.806 160.101 6.28043 159.94 5.59861 159.94H3.26197V163.541ZM18.3241 172.213C17.202 172.213 16.236 171.986 15.4264 171.531C14.6215 171.072 14.0012 170.423 13.5656 169.585C13.13 168.742 12.9122 167.746 12.9122 166.595C12.9122 165.473 13.13 164.488 13.5656 163.641C14.0012 162.793 14.6144 162.133 15.4051 161.659C16.2005 161.186 17.1333 160.949 18.2034 160.949C18.9231 160.949 19.5931 161.065 20.2133 161.297C20.8383 161.524 21.3828 161.867 21.8468 162.327C22.3156 162.786 22.6802 163.364 22.9406 164.06C23.201 164.751 23.3312 165.561 23.3312 166.489V167.32H14.1196V165.445H20.4832C20.4832 165.009 20.3885 164.623 20.1991 164.287C20.0097 163.951 19.7469 163.688 19.4108 163.499C19.0793 163.304 18.6934 163.207 18.2531 163.207C17.7938 163.207 17.3866 163.314 17.0315 163.527C16.6811 163.735 16.4065 164.017 16.2076 164.372C16.0088 164.723 15.907 165.113 15.9022 165.544V167.327C15.9022 167.866 16.0017 168.333 16.2005 168.726C16.4041 169.119 16.6906 169.422 17.0599 169.635C17.4292 169.848 17.8672 169.955 18.3738 169.955C18.71 169.955 19.0178 169.907 19.2971 169.812C19.5765 169.718 19.8156 169.576 20.0145 169.386C20.2133 169.197 20.3648 168.965 20.469 168.69L23.2673 168.875C23.1252 169.547 22.8341 170.134 22.3937 170.636C21.9581 171.134 21.3947 171.522 20.7034 171.801C20.0168 172.076 19.2237 172.213 18.3241 172.213ZM28.3312 157.455V172H25.3056V157.455H28.3312ZM37.7506 167.355V161.091H40.7762V172H37.8713V170.018H37.7577C37.5115 170.658 37.1019 171.171 36.529 171.56C35.9608 171.948 35.2672 172.142 34.448 172.142C33.7189 172.142 33.0773 171.976 32.5233 171.645C31.9694 171.313 31.5361 170.842 31.2236 170.232C30.9158 169.621 30.7596 168.889 30.7549 168.037V161.091H33.7804V167.497C33.7852 168.141 33.958 168.65 34.2989 169.024C34.6398 169.398 35.0967 169.585 35.6696 169.585C36.0342 169.585 36.3751 169.502 36.6924 169.337C37.0096 169.166 37.2653 168.915 37.4594 168.584C37.6583 168.252 37.7553 167.843 37.7506 167.355ZM43.1963 172V161.091H46.0798V163.016H46.2076C46.4349 162.376 46.8137 161.872 47.344 161.503C47.8743 161.134 48.5088 160.949 49.2474 160.949C49.9955 160.949 50.6324 161.136 51.1579 161.51C51.6835 161.879 52.0339 162.381 52.2091 163.016H52.3227C52.5452 162.391 52.9477 161.891 53.5301 161.517C54.1172 161.138 54.8109 160.949 55.611 160.949C56.629 160.949 57.4553 161.273 58.0897 161.922C58.7289 162.566 59.0485 163.48 59.0485 164.663V172H56.0301V165.26C56.0301 164.654 55.8691 164.199 55.5471 163.896C55.2252 163.593 54.8227 163.442 54.3397 163.442C53.7905 163.442 53.362 163.617 53.0542 163.967C52.7465 164.313 52.5926 164.77 52.5926 165.338V172H49.6593V165.196C49.6593 164.661 49.5055 164.235 49.1977 163.918C48.8947 163.6 48.4946 163.442 47.9974 163.442C47.6612 163.442 47.3582 163.527 47.0883 163.697C46.8232 163.863 46.6125 164.098 46.4562 164.401C46.3 164.699 46.2218 165.049 46.2218 165.452V172H43.1963ZM73.2602 172H69.9647L74.986 157.455H78.9491L83.9633 172H80.6679L77.0244 160.778H76.9108L73.2602 172ZM73.0542 166.283H80.8383V168.683H73.0542V166.283ZM89.1693 172.178C88.3407 172.178 87.5902 171.964 86.9179 171.538C86.2502 171.107 85.7199 170.475 85.327 169.642C84.9387 168.804 84.7446 167.777 84.7446 166.56C84.7446 165.31 84.9458 164.27 85.3483 163.442C85.7507 162.608 86.2858 161.986 86.9534 161.574C87.6257 161.157 88.362 160.949 89.1622 160.949C89.773 160.949 90.282 161.053 90.6892 161.261C91.1011 161.465 91.4325 161.721 91.6835 162.028C91.9392 162.331 92.1333 162.63 92.2659 162.923H92.3582V157.455H95.3767V172H92.3937V170.253H92.2659C92.1238 170.556 91.9226 170.857 91.6622 171.155C91.4065 171.448 91.0727 171.692 90.6608 171.886C90.2536 172.08 89.7564 172.178 89.1693 172.178ZM90.1281 169.77C90.6158 169.77 91.0277 169.637 91.3639 169.372C91.7048 169.102 91.9652 168.726 92.1451 168.243C92.3298 167.76 92.4221 167.194 92.4221 166.545C92.4221 165.897 92.3322 165.333 92.1522 164.855C91.9723 164.377 91.7119 164.008 91.371 163.747C91.0301 163.487 90.6158 163.357 90.1281 163.357C89.6309 163.357 89.2119 163.491 88.871 163.761C88.5301 164.031 88.272 164.405 88.0968 164.884C87.9216 165.362 87.8341 165.916 87.8341 166.545C87.8341 167.18 87.9216 167.741 88.0968 168.229C88.2768 168.712 88.5348 169.09 88.871 169.365C89.2119 169.635 89.6309 169.77 90.1281 169.77ZM100.975 172.206C100.279 172.206 99.6587 172.085 99.1142 171.844C98.5697 171.598 98.1389 171.235 97.8216 170.757C97.5091 170.274 97.3529 169.673 97.3529 168.953C97.3529 168.347 97.4641 167.838 97.6867 167.426C97.9092 167.014 98.2123 166.683 98.5958 166.432C98.9793 166.181 99.4149 165.991 99.9026 165.864C100.395 165.736 100.911 165.646 101.451 165.594C102.085 165.527 102.597 165.466 102.985 165.409C103.373 165.348 103.655 165.258 103.83 165.139C104.005 165.021 104.093 164.846 104.093 164.614V164.571C104.093 164.121 103.951 163.773 103.667 163.527C103.387 163.281 102.99 163.158 102.474 163.158C101.929 163.158 101.496 163.278 101.174 163.52C100.852 163.757 100.639 164.055 100.535 164.415L97.7364 164.188C97.8784 163.525 98.1578 162.952 98.5745 162.469C98.9911 161.981 99.5285 161.607 100.187 161.347C100.85 161.081 101.617 160.949 102.488 160.949C103.094 160.949 103.674 161.02 104.228 161.162C104.787 161.304 105.281 161.524 105.712 161.822C106.148 162.121 106.491 162.504 106.742 162.973C106.993 163.437 107.119 163.993 107.119 164.642V172H104.249V170.487H104.164C103.989 170.828 103.754 171.129 103.461 171.389C103.167 171.645 102.815 171.846 102.403 171.993C101.991 172.135 101.515 172.206 100.975 172.206ZM101.842 170.118C102.287 170.118 102.68 170.03 103.02 169.855C103.361 169.675 103.629 169.434 103.823 169.131C104.017 168.828 104.114 168.484 104.114 168.101V166.943C104.02 167.005 103.889 167.062 103.724 167.114C103.563 167.161 103.38 167.206 103.177 167.249C102.973 167.286 102.77 167.322 102.566 167.355C102.362 167.384 102.178 167.41 102.012 167.433C101.657 167.485 101.347 167.568 101.082 167.682C100.816 167.795 100.61 167.949 100.464 168.143C100.317 168.333 100.244 168.57 100.244 168.854C100.244 169.266 100.393 169.58 100.691 169.798C100.994 170.011 101.377 170.118 101.842 170.118ZM114.152 172V157.455H119.89C120.993 157.455 121.933 157.665 122.71 158.087C123.486 158.503 124.078 159.083 124.485 159.827C124.897 160.565 125.103 161.418 125.103 162.384C125.103 163.349 124.895 164.202 124.478 164.94C124.062 165.679 123.458 166.254 122.667 166.666C121.881 167.078 120.929 167.284 119.812 167.284H116.154V164.82H119.315C119.907 164.82 120.394 164.718 120.778 164.514C121.166 164.306 121.455 164.019 121.644 163.655C121.839 163.286 121.936 162.862 121.936 162.384C121.936 161.901 121.839 161.479 121.644 161.119C121.455 160.755 121.166 160.473 120.778 160.274C120.39 160.071 119.897 159.969 119.301 159.969H117.227V172H114.152ZM131.84 172.213C130.718 172.213 129.752 171.986 128.942 171.531C128.137 171.072 127.517 170.423 127.081 169.585C126.646 168.742 126.428 167.746 126.428 166.595C126.428 165.473 126.646 164.488 127.081 163.641C127.517 162.793 128.13 162.133 128.921 161.659C129.716 161.186 130.649 160.949 131.719 160.949C132.439 160.949 133.109 161.065 133.729 161.297C134.354 161.524 134.898 161.867 135.362 162.327C135.831 162.786 136.196 163.364 136.456 164.06C136.717 164.751 136.847 165.561 136.847 166.489V167.32H127.635V165.445H133.999C133.999 165.009 133.904 164.623 133.715 164.287C133.525 163.951 133.263 163.688 132.926 163.499C132.595 163.304 132.209 163.207 131.769 163.207C131.309 163.207 130.902 163.314 130.547 163.527C130.197 163.735 129.922 164.017 129.723 164.372C129.524 164.723 129.423 165.113 129.418 165.544V167.327C129.418 167.866 129.517 168.333 129.716 168.726C129.92 169.119 130.206 169.422 130.576 169.635C130.945 169.848 131.383 169.955 131.889 169.955C132.226 169.955 132.533 169.907 132.813 169.812C133.092 169.718 133.331 169.576 133.53 169.386C133.729 169.197 133.88 168.965 133.985 168.69L136.783 168.875C136.641 169.547 136.35 170.134 135.909 170.636C135.474 171.134 134.91 171.522 134.219 171.801C133.532 172.076 132.739 172.213 131.84 172.213ZM141.847 165.693V172H138.821V161.091H141.705V163.016H141.833C142.074 162.381 142.479 161.879 143.047 161.51C143.615 161.136 144.304 160.949 145.114 160.949C145.871 160.949 146.532 161.115 147.095 161.446C147.659 161.777 148.097 162.251 148.409 162.866C148.722 163.477 148.878 164.206 148.878 165.054V172H145.853V165.594C145.857 164.926 145.687 164.405 145.341 164.031C144.996 163.652 144.52 163.463 143.914 163.463C143.506 163.463 143.147 163.551 142.834 163.726C142.526 163.901 142.285 164.157 142.11 164.493C141.939 164.824 141.852 165.224 141.847 165.693ZM152.74 176.091C152.356 176.091 151.997 176.06 151.66 175.999C151.329 175.942 151.054 175.868 150.837 175.778L151.518 173.52C151.873 173.629 152.193 173.688 152.477 173.697C152.766 173.707 153.015 173.641 153.223 173.499C153.436 173.357 153.609 173.115 153.741 172.774L153.919 172.312L150.006 161.091H153.187L155.446 169.102H155.56L157.839 161.091H161.043L156.802 173.179C156.599 173.766 156.322 174.277 155.971 174.713C155.626 175.153 155.188 175.492 154.658 175.729C154.127 175.97 153.488 176.091 152.74 176.091ZM167.211 172.213C166.089 172.213 165.123 171.986 164.313 171.531C163.508 171.072 162.888 170.423 162.452 169.585C162.017 168.742 161.799 167.746 161.799 166.595C161.799 165.473 162.017 164.488 162.452 163.641C162.888 162.793 163.501 162.133 164.292 161.659C165.087 161.186 166.02 160.949 167.09 160.949C167.81 160.949 168.48 161.065 169.1 161.297C169.725 161.524 170.27 161.867 170.734 162.327C171.202 162.786 171.567 163.364 171.827 164.06C172.088 164.751 172.218 165.561 172.218 166.489V167.32H163.006V165.445H169.37C169.37 165.009 169.275 164.623 169.086 164.287C168.896 163.951 168.634 163.688 168.297 163.499C167.966 163.304 167.58 163.207 167.14 163.207C166.681 163.207 166.273 163.314 165.918 163.527C165.568 163.735 165.293 164.017 165.094 164.372C164.895 164.723 164.794 165.113 164.789 165.544V167.327C164.789 167.866 164.888 168.333 165.087 168.726C165.291 169.119 165.577 169.422 165.947 169.635C166.316 169.848 166.754 169.955 167.261 169.955C167.597 169.955 167.904 169.907 168.184 169.812C168.463 169.718 168.702 169.576 168.901 169.386C169.1 169.197 169.252 168.965 169.356 168.69L172.154 168.875C172.012 169.547 171.721 170.134 171.28 170.636C170.845 171.134 170.281 171.522 169.59 171.801C168.904 172.076 168.11 172.213 167.211 172.213ZM176.266 172L173.297 161.091H176.359L178.049 168.42H178.148L179.91 161.091H182.914L184.704 168.378H184.796L186.458 161.091H189.512L186.55 172H183.347L181.472 165.139H181.337L179.462 172H176.266ZM194.237 172.206C193.541 172.206 192.92 172.085 192.376 171.844C191.831 171.598 191.401 171.235 191.083 170.757C190.771 170.274 190.615 169.673 190.615 168.953C190.615 168.347 190.726 167.838 190.948 167.426C191.171 167.014 191.474 166.683 191.857 166.432C192.241 166.181 192.677 165.991 193.164 165.864C193.657 165.736 194.173 165.646 194.713 165.594C195.347 165.527 195.858 165.466 196.247 165.409C196.635 165.348 196.917 165.258 197.092 165.139C197.267 165.021 197.355 164.846 197.355 164.614V164.571C197.355 164.121 197.213 163.773 196.929 163.527C196.649 163.281 196.251 163.158 195.735 163.158C195.191 163.158 194.758 163.278 194.436 163.52C194.114 163.757 193.901 164.055 193.796 164.415L190.998 164.188C191.14 163.525 191.42 162.952 191.836 162.469C192.253 161.981 192.79 161.607 193.448 161.347C194.111 161.081 194.878 160.949 195.75 160.949C196.356 160.949 196.936 161.02 197.49 161.162C198.048 161.304 198.543 161.524 198.974 161.822C199.41 162.121 199.753 162.504 200.004 162.973C200.255 163.437 200.38 163.993 200.38 164.642V172H197.511V170.487H197.426C197.25 170.828 197.016 171.129 196.723 171.389C196.429 171.645 196.076 171.846 195.664 171.993C195.252 172.135 194.777 172.206 194.237 172.206ZM195.103 170.118C195.548 170.118 195.941 170.03 196.282 169.855C196.623 169.675 196.891 169.434 197.085 169.131C197.279 168.828 197.376 168.484 197.376 168.101V166.943C197.281 167.005 197.151 167.062 196.985 167.114C196.824 167.161 196.642 167.206 196.438 167.249C196.235 167.286 196.031 167.322 195.828 167.355C195.624 167.384 195.439 167.41 195.274 167.433C194.919 167.485 194.608 167.568 194.343 167.682C194.078 167.795 193.872 167.949 193.725 168.143C193.579 168.333 193.505 168.57 193.505 168.854C193.505 169.266 193.654 169.58 193.953 169.798C194.256 170.011 194.639 170.118 195.103 170.118ZM205.838 172.206C205.142 172.206 204.522 172.085 203.978 171.844C203.433 171.598 203.002 171.235 202.685 170.757C202.372 170.274 202.216 169.673 202.216 168.953C202.216 168.347 202.327 167.838 202.55 167.426C202.773 167.014 203.076 166.683 203.459 166.432C203.843 166.181 204.278 165.991 204.766 165.864C205.258 165.736 205.774 165.646 206.314 165.594C206.949 165.527 207.46 165.466 207.848 165.409C208.237 165.348 208.518 165.258 208.693 165.139C208.869 165.021 208.956 164.846 208.956 164.614V164.571C208.956 164.121 208.814 163.773 208.53 163.527C208.251 163.281 207.853 163.158 207.337 163.158C206.792 163.158 206.359 163.278 206.037 163.52C205.715 163.757 205.502 164.055 205.398 164.415L202.6 164.188C202.742 163.525 203.021 162.952 203.438 162.469C203.854 161.981 204.392 161.607 205.05 161.347C205.713 161.081 206.48 160.949 207.351 160.949C207.957 160.949 208.537 161.02 209.091 161.162C209.65 161.304 210.145 161.524 210.576 161.822C211.011 162.121 211.354 162.504 211.605 162.973C211.856 163.437 211.982 163.993 211.982 164.642V172H209.112V170.487H209.027C208.852 170.828 208.618 171.129 208.324 171.389C208.031 171.645 207.678 171.846 207.266 171.993C206.854 172.135 206.378 172.206 205.838 172.206ZM206.705 170.118C207.15 170.118 207.543 170.03 207.884 169.855C208.225 169.675 208.492 169.434 208.686 169.131C208.88 168.828 208.978 168.484 208.978 168.101V166.943C208.883 167.005 208.753 167.062 208.587 167.114C208.426 167.161 208.244 167.206 208.04 167.249C207.836 167.286 207.633 167.322 207.429 167.355C207.226 167.384 207.041 167.41 206.875 167.433C206.52 167.485 206.21 167.568 205.945 167.682C205.68 167.795 205.474 167.949 205.327 168.143C205.18 168.333 205.107 168.57 205.107 168.854C205.107 169.266 205.256 169.58 205.554 169.798C205.857 170.011 206.241 170.118 206.705 170.118ZM217.355 165.693V172H214.329V161.091H217.213V163.016H217.34C217.582 162.381 217.987 161.879 218.555 161.51C219.123 161.136 219.812 160.949 220.622 160.949C221.379 160.949 222.04 161.115 222.603 161.446C223.167 161.777 223.605 162.251 223.917 162.866C224.23 163.477 224.386 164.206 224.386 165.054V172H221.36V165.594C221.365 164.926 221.195 164.405 220.849 164.031C220.503 163.652 220.027 163.463 219.421 163.463C219.014 163.463 218.654 163.551 218.342 163.726C218.034 163.901 217.793 164.157 217.617 164.493C217.447 164.824 217.359 165.224 217.355 165.693ZM75.9511 183.99V181.455H87.8971V183.99H83.444V196H80.4042V183.99H75.9511ZM93.1972 196.213C92.075 196.213 91.1091 195.986 90.2994 195.531C89.4945 195.072 88.8742 194.423 88.4386 193.585C88.003 192.742 87.7852 191.746 87.7852 190.595C87.7852 189.473 88.003 188.488 88.4386 187.641C88.8742 186.793 89.4874 186.133 90.2781 185.659C91.0736 185.186 92.0063 184.949 93.0764 184.949C93.7961 184.949 94.4661 185.065 95.0864 185.297C95.7114 185.524 96.2559 185.867 96.7199 186.327C97.1886 186.786 97.5532 187.364 97.8136 188.06C98.0741 188.751 98.2043 189.561 98.2043 190.489V191.32H88.9926V189.445H95.3562C95.3562 189.009 95.2616 188.623 95.0722 188.287C94.8828 187.951 94.62 187.688 94.2838 187.499C93.9524 187.304 93.5665 187.207 93.1261 187.207C92.6669 187.207 92.2597 187.314 91.9045 187.527C91.5542 187.735 91.2795 188.017 91.0807 188.372C90.8818 188.723 90.78 189.113 90.7753 189.544V191.327C90.7753 191.866 90.8747 192.333 91.0736 192.726C91.2772 193.119 91.5636 193.422 91.933 193.635C92.3023 193.848 92.7402 193.955 93.2469 193.955C93.583 193.955 93.8908 193.907 94.1702 193.812C94.4495 193.718 94.6886 193.576 94.8875 193.386C95.0864 193.197 95.2379 192.965 95.342 192.69L98.1403 192.875C97.9983 193.547 97.7071 194.134 97.2668 194.636C96.8312 195.134 96.2677 195.522 95.5764 195.801C94.8899 196.076 94.0968 196.213 93.1972 196.213ZM100.179 196V185.091H103.062V187.016H103.19C103.417 186.376 103.796 185.872 104.326 185.503C104.857 185.134 105.491 184.949 106.23 184.949C106.978 184.949 107.615 185.136 108.14 185.51C108.666 185.879 109.016 186.381 109.191 187.016H109.305C109.528 186.391 109.93 185.891 110.512 185.517C111.1 185.138 111.793 184.949 112.593 184.949C113.611 184.949 114.438 185.273 115.072 185.922C115.711 186.566 116.031 187.48 116.031 188.663V196H113.012V189.26C113.012 188.654 112.852 188.199 112.53 187.896C112.208 187.593 111.805 187.442 111.322 187.442C110.773 187.442 110.344 187.617 110.037 187.967C109.729 188.313 109.575 188.77 109.575 189.338V196H106.642V189.196C106.642 188.661 106.488 188.235 106.18 187.918C105.877 187.6 105.477 187.442 104.98 187.442C104.644 187.442 104.341 187.527 104.071 187.697C103.806 187.863 103.595 188.098 103.439 188.401C103.282 188.699 103.204 189.049 103.204 189.452V196H100.179ZM118.421 200.091V185.091H121.404V186.923H121.539C121.671 186.63 121.863 186.331 122.114 186.028C122.37 185.721 122.701 185.465 123.108 185.261C123.52 185.053 124.032 184.949 124.642 184.949C125.438 184.949 126.172 185.157 126.844 185.574C127.517 185.986 128.054 186.608 128.456 187.442C128.859 188.27 129.06 189.31 129.06 190.56C129.06 191.777 128.864 192.804 128.471 193.642C128.082 194.475 127.552 195.107 126.88 195.538C126.212 195.964 125.464 196.178 124.635 196.178C124.048 196.178 123.549 196.08 123.137 195.886C122.73 195.692 122.396 195.448 122.135 195.155C121.875 194.857 121.676 194.556 121.539 194.253H121.446V200.091H118.421ZM121.383 190.545C121.383 191.194 121.472 191.76 121.652 192.243C121.832 192.726 122.093 193.102 122.434 193.372C122.775 193.637 123.189 193.77 123.677 193.77C124.169 193.77 124.586 193.635 124.927 193.365C125.267 193.09 125.526 192.712 125.701 192.229C125.881 191.741 125.971 191.18 125.971 190.545C125.971 189.916 125.883 189.362 125.708 188.884C125.533 188.405 125.275 188.031 124.934 187.761C124.593 187.491 124.174 187.357 123.677 187.357C123.184 187.357 122.767 187.487 122.427 187.747C122.09 188.008 121.832 188.377 121.652 188.855C121.472 189.333 121.383 189.897 121.383 190.545ZM134.188 196.206C133.492 196.206 132.872 196.085 132.327 195.844C131.783 195.598 131.352 195.235 131.035 194.757C130.722 194.274 130.566 193.673 130.566 192.953C130.566 192.347 130.677 191.838 130.9 191.426C131.122 191.014 131.425 190.683 131.809 190.432C132.192 190.181 132.628 189.991 133.115 189.864C133.608 189.736 134.124 189.646 134.664 189.594C135.298 189.527 135.81 189.466 136.198 189.409C136.586 189.348 136.868 189.258 137.043 189.139C137.218 189.021 137.306 188.846 137.306 188.614V188.571C137.306 188.121 137.164 187.773 136.88 187.527C136.6 187.281 136.203 187.158 135.687 187.158C135.142 187.158 134.709 187.278 134.387 187.52C134.065 187.757 133.852 188.055 133.748 188.415L130.949 188.188C131.091 187.525 131.371 186.952 131.787 186.469C132.204 185.981 132.741 185.607 133.4 185.347C134.062 185.081 134.83 184.949 135.701 184.949C136.307 184.949 136.887 185.02 137.441 185.162C137.999 185.304 138.494 185.524 138.925 185.822C139.361 186.121 139.704 186.504 139.955 186.973C140.206 187.437 140.331 187.993 140.331 188.642V196H137.462V194.487H137.377C137.202 194.828 136.967 195.129 136.674 195.389C136.38 195.645 136.027 195.846 135.615 195.993C135.204 196.135 134.728 196.206 134.188 196.206ZM135.054 194.118C135.499 194.118 135.892 194.03 136.233 193.855C136.574 193.675 136.842 193.434 137.036 193.131C137.23 192.828 137.327 192.484 137.327 192.101V190.943C137.232 191.005 137.102 191.062 136.937 191.114C136.776 191.161 136.593 191.206 136.39 191.249C136.186 191.286 135.982 191.322 135.779 191.355C135.575 191.384 135.391 191.41 135.225 191.433C134.87 191.485 134.56 191.568 134.294 191.682C134.029 191.795 133.823 191.949 133.677 192.143C133.53 192.333 133.456 192.57 133.456 192.854C133.456 193.266 133.606 193.58 133.904 193.798C134.207 194.011 134.59 194.118 135.054 194.118ZM148.481 185.091V187.364H141.912V185.091H148.481ZM143.403 182.477H146.429V192.648C146.429 192.927 146.471 193.145 146.557 193.301C146.642 193.453 146.76 193.559 146.912 193.621C147.068 193.682 147.248 193.713 147.451 193.713C147.593 193.713 147.736 193.701 147.878 193.678C148.02 193.649 148.129 193.628 148.204 193.614L148.68 195.865C148.529 195.912 148.316 195.967 148.041 196.028C147.766 196.095 147.432 196.135 147.039 196.149C146.31 196.178 145.671 196.08 145.122 195.858C144.577 195.635 144.154 195.29 143.851 194.821C143.548 194.352 143.398 193.76 143.403 193.045V182.477Z" fill="black"/>
</svg>
