<svg width="12" height="13" viewBox="0 0 12 13" fill="none" xmlns="http://www.w3.org/2000/svg">
<path id="Vector" d="M6.125 9.625C6.125 9.74861 6.09293 9.86945 6.03284 9.97223C5.97275 10.075 5.88734 10.1551 5.78741 10.2024C5.68748 10.2497 5.57752 10.2621 5.47144 10.238C5.36535 10.2139 5.26791 10.1543 5.19143 10.0669C5.11495 9.97953 5.06286 9.86817 5.04176 9.74693C5.02066 9.62569 5.03149 9.50003 5.07288 9.38582C5.11427 9.27162 5.18437 9.17401 5.2743 9.10533C5.36423 9.03666 5.46997 9 5.57813 9C5.72317 9 5.86227 9.06585 5.96483 9.18306C6.06739 9.30027 6.125 9.45924 6.125 9.625ZM5.57813 3C4.42969 3 3.5 3.95312 3.5 5.125V5.375C3.5 5.47446 3.53457 5.56984 3.59611 5.64016C3.65764 5.71049 3.7411 5.75 3.82813 5.75C3.91515 5.75 3.99861 5.71049 4.06015 5.64016C4.12168 5.56984 4.15625 5.47446 4.15625 5.375V5.125C4.15625 4.36687 4.79391 3.75 5.57813 3.75C6.36235 3.75 7 4.36687 7 5.125C7 5.88312 6.36235 6.5 5.57813 6.5C5.4911 6.5 5.40764 6.53951 5.34611 6.60983C5.28457 6.68016 5.25 6.77554 5.25 6.875V7.375C5.25 7.47446 5.28457 7.56984 5.34611 7.64016C5.40764 7.71049 5.4911 7.75 5.57813 7.75C5.66515 7.75 5.74861 7.71049 5.81015 7.64016C5.87168 7.56984 5.90625 7.47446 5.90625 7.375V7.22375C6.89664 7.0625 7.65625 6.1825 7.65625 5.125C7.65625 3.95312 6.72656 3 5.57813 3ZM11.1563 6.375C11.1563 7.63586 10.8291 8.8684 10.2162 9.91676C9.60324 10.9651 8.73205 11.7822 7.71278 12.2647C6.69351 12.7472 5.57194 12.8735 4.48989 12.6275C3.40784 12.3815 2.41391 11.7744 1.6338 10.8828C0.853683 9.99125 0.322418 8.85533 0.107185 7.6187C-0.108049 6.38207 0.00241682 5.10027 0.424612 3.93539C0.846807 2.77051 1.56177 1.77488 2.47909 1.07438C3.3964 0.373887 4.47488 0 5.57813 0C7.057 0.00198491 8.47481 0.674272 9.52054 1.86939C10.5663 3.0645 11.1545 4.68485 11.1563 6.375ZM10.5 6.375C10.5 5.26248 10.2113 4.17494 9.67052 3.24992C9.12969 2.32489 8.361 1.60392 7.46165 1.17818C6.56229 0.752435 5.57267 0.641041 4.61792 0.858083C3.66317 1.07512 2.78617 1.61085 2.09784 2.39752C1.4095 3.18419 0.940736 4.18647 0.750825 5.27762C0.560913 6.36876 0.658383 7.49976 1.03091 8.52759C1.40343 9.55543 2.03428 10.4339 2.84368 11.052C3.65308 11.6701 4.60467 12 5.57813 12C6.88305 11.9983 8.1341 11.4052 9.05682 10.3506C9.97954 9.29611 10.4986 7.86633 10.5 6.375Z" fill="black"/>
</svg>
