<svg width="40" height="32" viewBox="0 0 40 32" fill="none" xmlns="http://www.w3.org/2000/svg">
<g id="skill-icons:twitter" clip-path="url(#clip0_895_4872)">
<g id="Group">
<path id="Vector" d="M30.625 0H9.375C4.19733 0 0 3.35786 0 7.5V24.5C0 28.6421 4.19733 32 9.375 32H30.625C35.8027 32 40 28.6421 40 24.5V7.5C40 3.35786 35.8027 0 30.625 0Z" fill="white"/>
<path id="Vector_2" d="M30.625 0H9.375C4.19733 0 0 3.35786 0 7.5V24.5C0 28.6421 4.19733 32 9.375 32H30.625C35.8027 32 40 28.6421 40 24.5V7.5C40 3.35786 35.8027 0 30.625 0Z" fill="#1D9BF0"/>
<path id="Vector_3" d="M31.1831 11.4264C31.2003 11.6247 31.2003 11.8231 31.2003 12.0234C31.2003 18.123 25.3959 25.1577 14.7823 25.1577V25.154C11.6469 25.1576 8.57641 24.4392 5.9375 23.0846C6.39344 23.1285 6.85156 23.1504 7.31094 23.1512C9.90968 23.1529 12.4337 22.4556 14.4773 21.1714C13.2732 21.1532 12.1064 20.8344 11.1398 20.2597C10.1733 19.6849 9.4554 18.8829 9.08656 17.9657C9.95106 18.0991 10.8423 18.0719 11.6916 17.8862C8.99969 17.4511 7.06297 15.559 7.06297 13.3615V13.303C7.86546 13.6606 8.76356 13.8587 9.68172 13.8807C7.14641 12.5251 6.36484 9.82674 7.89578 7.71699C9.34442 9.14312 11.1519 10.3095 13.2007 11.1404C15.2495 11.9712 17.4939 12.448 19.7881 12.5397C19.5594 11.752 19.5932 10.9301 19.8861 10.1561C20.179 9.38215 20.7208 8.68327 21.4573 8.12937C23.7814 6.38162 27.4366 6.47124 29.6213 8.32949C30.9134 8.1254 32.1526 7.74642 33.2855 7.20887C32.8547 8.2777 31.9533 9.18496 30.7489 9.76187C31.8928 9.65406 33.0098 9.40911 34.0625 9.03524C33.2881 9.96299 32.3131 10.7726 31.1831 11.4264Z" fill="white"/>
</g>
</g>
<defs>
<clipPath id="clip0_895_4872">
<rect width="40" height="32" fill="white"/>
</clipPath>
</defs>
</svg>
